<svg width="25" height="25" viewBox="0 0 25 25" fill="none" xmlns="http://www.w3.org/2000/svg">
<path d="M12.5 25C11.994 25 11.5696 24.8286 11.2268 24.4857C10.8839 24.1429 10.7131 23.719 10.7143 23.2143V14.2857H1.78572C1.27977 14.2857 0.855363 14.1143 0.512506 13.7714C0.169649 13.4286 -0.0011843 13.0048 6.17893e-06 12.5C6.17893e-06 11.994 0.171435 11.5696 0.514292 11.2268C0.857149 10.8839 1.28096 10.7131 1.78572 10.7143H10.7143V1.78572C10.7143 1.27977 10.8857 0.855363 11.2286 0.512506C11.5714 0.169649 11.9952 -0.0011843 12.5 6.17893e-06C13.006 6.17893e-06 13.4304 0.171435 13.7732 0.514292C14.1161 0.857149 14.2869 1.28096 14.2857 1.78572V10.7143H23.2143C23.7202 10.7143 24.1446 10.8857 24.4875 11.2286C24.8304 11.5714 25.0012 11.9952 25 12.5C25 13.006 24.8286 13.4304 24.4857 13.7732C24.1429 14.1161 23.719 14.2869 23.2143 14.2857H14.2857V23.2143C14.2857 23.7202 14.1143 24.1446 13.7714 24.4875C13.4286 24.8304 13.0048 25.0012 12.5 25Z" fill="black"/>
</svg>
